<svg version="1.1" id="Layer_1" xmlns="http://www.w3.org/2000/svg" xmlns:xlink="http://www.w3.org/1999/xlink" x="0px" y="0px"
	 width="100%" viewBox="0 0 512 512" enable-background="new 0 0 512 512" xml:space="preserve">
<path fill="#000000" opacity="1.000000" stroke="none" 
	d="
M282.000000,513.000000 
	C188.022812,513.000000 94.545624,513.000000 1.034216,513.000000 
	C1.034216,342.397797 1.034216,171.795563 1.034216,1.096670 
	C171.560532,1.096670 342.121155,1.096670 512.840881,1.096670 
	C512.840881,171.666550 512.840881,342.333252 512.840881,513.000000 
	C436.128876,513.000000 359.314423,513.000000 282.000000,513.000000 
M295.345978,349.499268 
	C295.346100,316.680023 295.288910,283.860626 295.378021,251.041626 
	C295.408447,239.832901 299.859833,229.380859 316.321198,230.871216 
	C322.977325,231.473831 326.783936,233.748596 327.989929,240.225281 
	C329.108368,246.231567 329.661774,252.424820 329.688477,258.539154 
	C329.841309,293.523376 329.762756,328.508606 329.762756,363.493500 
	C329.762756,365.264984 329.762756,367.036469 329.762756,368.840637 
	C338.467072,368.840637 346.684906,368.840637 355.101685,368.840637 
	C355.101685,365.364746 355.101654,362.218872 355.101685,359.072998 
	C355.101898,324.088104 355.049133,289.103088 355.124939,254.118347 
	C355.162262,236.895752 361.991455,229.929520 377.439117,230.967972 
	C383.284088,231.360886 386.968048,234.040817 387.937164,239.744476 
	C388.851593,245.126083 389.237030,250.655823 389.253876,256.122253 
	C389.364197,291.939789 389.311371,327.757812 389.311798,363.575684 
	C389.311829,365.335876 389.311798,367.096069 389.311798,368.873199 
	C398.274902,368.873199 406.515900,368.873199 415.021759,368.873199 
	C415.021759,367.103699 415.021759,365.630585 415.021759,364.157471 
	C415.021484,328.339600 415.066437,292.521606 414.975372,256.703979 
	C414.960602,250.895905 414.590973,245.062088 413.956970,239.287201 
	C411.992188,221.391296 402.032623,211.986710 384.424377,209.828781 
	C370.071869,208.069824 357.328918,210.257462 347.231506,221.887283 
	C340.350677,213.577972 331.497833,210.423233 321.552979,209.472626 
	C311.716034,208.532333 302.357880,209.492569 294.013916,216.300720 
	C293.820526,213.565933 293.682648,211.615906 293.530365,209.462479 
	C285.579010,209.462479 277.859955,209.462479 270.145996,209.462479 
	C270.145996,262.816803 270.145996,315.870483 270.145996,368.807983 
	C278.639282,368.807983 286.853302,368.807983 295.345886,368.807983 
	C295.345886,362.463989 295.345886,356.481171 295.345978,349.499268 
M170.006393,221.439056 
	C146.499512,282.199036 122.992638,342.959015 99.216644,404.414612 
	C107.468163,404.414612 114.920685,404.236847 122.357651,404.499420 
	C125.463760,404.609131 126.585777,403.388275 127.631477,400.679810 
	C164.576218,304.986572 201.609879,209.327667 238.615311,113.657852 
	C239.040878,112.557671 239.260315,111.377769 239.597519,110.157181 
	C230.540833,110.157181 221.905045,110.157181 213.109299,110.157181 
	C198.800400,147.045868 184.515778,183.871964 170.006393,221.439056 
z"/>
<path fill="#FDFDFD" opacity="1.000000" stroke="none" 
	d="
M295.345947,349.998810 
	C295.345886,356.481171 295.345886,362.463989 295.345886,368.807983 
	C286.853302,368.807983 278.639282,368.807983 270.145996,368.807983 
	C270.145996,315.870483 270.145996,262.816803 270.145996,209.462479 
	C277.859955,209.462479 285.579010,209.462479 293.530365,209.462479 
	C293.682648,211.615906 293.820526,213.565933 294.013916,216.300720 
	C302.357880,209.492569 311.716034,208.532333 321.552979,209.472626 
	C331.497833,210.423233 340.350677,213.577972 347.231506,221.887283 
	C357.328918,210.257462 370.071869,208.069824 384.424377,209.828781 
	C402.032623,211.986710 411.992188,221.391296 413.956970,239.287201 
	C414.590973,245.062088 414.960602,250.895905 414.975372,256.703979 
	C415.066437,292.521606 415.021484,328.339600 415.021759,364.157471 
	C415.021759,365.630585 415.021759,367.103699 415.021759,368.873199 
	C406.515900,368.873199 398.274902,368.873199 389.311798,368.873199 
	C389.311798,367.096069 389.311829,365.335876 389.311798,363.575684 
	C389.311371,327.757812 389.364197,291.939789 389.253876,256.122253 
	C389.237030,250.655823 388.851593,245.126083 387.937164,239.744476 
	C386.968048,234.040817 383.284088,231.360886 377.439117,230.967972 
	C361.991455,229.929520 355.162262,236.895752 355.124939,254.118347 
	C355.049133,289.103088 355.101898,324.088104 355.101685,359.072998 
	C355.101654,362.218872 355.101685,365.364746 355.101685,368.840637 
	C346.684906,368.840637 338.467072,368.840637 329.762756,368.840637 
	C329.762756,367.036469 329.762756,365.264984 329.762756,363.493500 
	C329.762756,328.508606 329.841309,293.523376 329.688477,258.539154 
	C329.661774,252.424820 329.108368,246.231567 327.989929,240.225281 
	C326.783936,233.748596 322.977325,231.473831 316.321198,230.871216 
	C299.859833,229.380859 295.408447,239.832901 295.378021,251.041626 
	C295.288910,283.860626 295.346100,316.680023 295.345947,349.998810 
z"/>
<path fill="#FCFCFC" opacity="1.000000" stroke="none" 
	d="
M170.118774,221.068542 
	C184.515778,183.871964 198.800400,147.045868 213.109299,110.157181 
	C221.905045,110.157181 230.540833,110.157181 239.597519,110.157181 
	C239.260315,111.377769 239.040878,112.557671 238.615311,113.657852 
	C201.609879,209.327667 164.576218,304.986572 127.631477,400.679810 
	C126.585777,403.388275 125.463760,404.609131 122.357651,404.499420 
	C114.920685,404.236847 107.468163,404.414612 99.216644,404.414612 
	C122.992638,342.959015 146.499512,282.199036 170.118774,221.068542 
z"/>
</svg>