<?xml version="1.0" standalone="no"?>
<!DOCTYPE svg PUBLIC "-//W3C//DTD SVG 20010904//EN"
 "http://www.w3.org/TR/2001/REC-SVG-20010904/DTD/svg10.dtd">
<svg version="1.0" xmlns="http://www.w3.org/2000/svg"
 width="640.000000pt" height="640.000000pt" viewBox="0 0 640.000000 640.000000"
 preserveAspectRatio="xMidYMid meet">
<metadata>
Created by potrace 1.14, written by Peter Selinger 2001-2017
</metadata>
<g transform="translate(0.000000,640.000000) scale(0.100000,-0.100000)"
fill="#000000" stroke="none">
<path d="M1122 5420 c-226 -59 -404 -239 -462 -466 -19 -75 -20 -116 -20
-1396 l0 -1318 320 0 320 0 0 1280 0 1280 1920 0 1920 0 0 -1280 0 -1280 320
0 320 0 0 1318 c0 1280 -1 1321 -20 1396 -58 229 -237 408 -466 466 -76 20
-118 20 -2078 19 -1936 0 -2003 -1 -2074 -19z"/>
<path d="M2558 4066 c-20 -7 -54 -27 -75 -44 -71 -57 -520 -517 -537 -550 -24
-47 -31 -123 -16 -179 12 -44 39 -74 293 -330 158 -159 296 -290 316 -299 156
-74 341 43 341 216 0 92 -24 128 -208 312 l-166 168 166 167 c91 93 173 183
182 202 23 44 31 126 17 176 -35 131 -183 207 -313 161z"/>
<path d="M3682 4068 c-57 -19 -128 -92 -148 -150 -19 -59 -15 -138 12 -189 9
-19 91 -109 182 -201 l166 -168 -166 -167 c-91 -93 -173 -183 -182 -201 -85
-166 54 -368 239 -349 29 3 68 13 86 22 19 10 154 137 301 284 291 290 307
312 308 412 0 97 -22 127 -312 415 -145 144 -279 269 -298 279 -42 21 -143 28
-188 13z"/>
<path d="M115 1903 c-108 -56 -136 -150 -100 -327 63 -303 298 -538 601 -601
64 -13 384 -15 2584 -15 2200 0 2520 2 2584 15 303 63 538 298 601 601 33 159
14 241 -68 308 l-39 31 -3066 2 c-2782 2 -3070 1 -3097 -14z"/>
</g>
</svg>
